<svg width="64" height="64" xmlns="http://www.w3.org/2000/svg">

 <g>
  <title>background</title>
  <rect fill="none" id="canvas_background" height="402" width="582" y="-1" x="-1"/>
 </g>
 <g>
  <title>Layer 1</title>
  <path fill="#579dff" id="svg_2" d="m21.235356,20.63c0,0 -1.79,8.99 -0.96,11.47c0,0 1.1,-13.6 11.67,-24.1c0,0 -0.34,8.79 5.15,13.25s6.73,11.4 6.73,11.4s0.62,-4.74 -1.24,-12.33c0,0 11.67,12.12 6.32,25.65c0,0 -6.45,14.9 -24.92,8.38s-6.05,-31.38 -2.75,-33.72z" class="st7"/>
  <path fill="#00fac0" id="svg_3" d="m40.75,32.12c0.17,3.81 -1.55,4.81 -2.94,5.01c-0.89,0.13 -1.79,-0.1 -2.57,-0.53c-7.65,-4.15 -3.72,-14.29 -3.72,-14.29c-5.01,4.79 -2.4,14.74 -2.4,14.74s1.55,5.64 -1.62,6.13c-1.59,0.25 -2.33,-0.39 -2.67,-1.08c-0.31,-0.64 -0.31,-1.39 -0.04,-2.05c2.15,-5.34 0.31,-8.36 0.31,-8.36c-1.03,3.06 -2.12,5.08 -2.91,6.29c-1.12,1.72 -1.83,3.68 -1.93,5.73c-0.36,7.64 6.04,10.69 6.04,10.69c10.51,5.36 15.23,-4.44 15.23,-4.44c5.43,-10.44 -0.78,-17.84 -0.78,-17.84z" class="st4"/>
  <text style="cursor: move;" font-weight="bold" font-style="italic" stroke="null" transform="matrix(0.38323437001593774,0,0,0.5044262152922734,18.18593904594234,13.20756477181151) " xml:space="preserve" text-anchor="start" font-family="'Shadows Into Light', serif" font-size="24" id="svg_4" y="78.121233" x="22.789139" stroke-opacity="null" stroke-width="0" fill="#f7f7f7">kw</text>
 </g>
</svg>