<?xml version="1.0"?>
<svg xmlns="http://www.w3.org/2000/svg" xmlns:xlink="http://www.w3.org/1999/xlink" xmlns:svgjs="http://svgjs.com/svgjs" version="1.1" width="512" height="512" x="0" y="0" viewBox="0 0 512 512" style="enable-background:new 0 0 512 512" xml:space="preserve" class=""><g><g xmlns="http://www.w3.org/2000/svg"><g><path d="m497 .204h-482c-8.284 0-15 6.716-15 15v481.592c0 8.284 6.716 15 15 15h482c8.284 0 15-6.716 15-15v-481.592c0-8.284-6.716-15-15-15zm-15 30v71.307h-452v-71.307zm-452 451.592v-349.877h452v349.877z" fill="#579dff" data-original="#000000" style="" class=""/><g><g><g><path d="m336.063 424.229h-8.624c-8.284 0-15-6.716-15-15s6.716-15 15-15h8.624c10.242 0 19.608-5.881 23.863-14.982 7.125-15.242 11.856-33.116 14.465-54.645.481-3.969 2.526-7.581 5.682-10.036 2.612-2.032 5.588-4.385 8.58-6.766-4.427-3.331-8.874-7.269-12.562-12.538-1.491-2.131-2.403-4.613-2.646-7.202-2.02-21.549-6.32-39.2-13.146-53.963-4.219-9.125-13.592-15.021-23.881-15.021h-8.979c-8.284 0-15-6.716-15-15s6.716-15 15-15h8.979c21.941 0 42.003 12.73 51.111 32.431 7.754 16.772 12.776 36.135 15.306 59.063 2.394 2.35 5.626 4.579 8.998 6.903 3.853 2.656 7.837 5.402 11.621 8.931 3.201 2.986 4.938 7.222 4.755 11.597-.183 4.374-2.268 8.45-5.708 11.158-1.402 1.104-3.74 2.977-6.532 5.212-3.857 3.089-8.389 6.719-12.617 10.06-3.147 22.032-8.482 40.9-16.25 57.518-9.164 19.61-29.199 32.28-51.039 32.28z" fill="#579dff" data-original="#000000" style="" class=""/></g><g><path d="m184.561 424.229h-8.624c-21.84 0-41.875-12.67-51.041-32.279-7.768-16.618-13.103-35.486-16.25-57.518-4.228-3.341-8.759-6.97-12.617-10.06-2.792-2.235-5.13-4.108-6.532-5.212-3.44-2.708-5.525-6.784-5.708-11.158-.183-4.375 1.554-8.61 4.755-11.597 3.784-3.529 7.768-6.275 11.621-8.931 3.372-2.324 6.604-4.553 8.998-6.903 2.53-22.928 7.552-42.291 15.306-59.063 9.108-19.701 29.17-32.431 51.111-32.431h8.979c8.284 0 15 6.716 15 15s-6.716 15-15 15h-8.979c-10.289 0-19.662 5.896-23.881 15.02-6.826 14.764-11.125 32.415-13.146 53.964-.243 2.589-1.155 5.071-2.646 7.202-3.688 5.269-8.135 9.207-12.562 12.538 2.991 2.381 5.967 4.734 8.58 6.766 3.156 2.455 5.201 6.067 5.682 10.036 2.609 21.529 7.341 39.403 14.465 54.645 4.254 9.102 13.621 14.982 23.863 14.982h8.624c8.284 0 15 6.716 15 15s-6.714 14.999-14.998 14.999z" fill="#579dff" data-original="#000000" style="" class=""/></g></g></g></g><path d="m445.232 81.26c8.141 0 15.94-7.085 15.564-15.403-.378-8.345-6.839-15.403-15.564-15.403-8.141 0-15.94 7.085-15.564 15.403.378 8.346 6.839 15.403 15.564 15.403z" fill="#579dff" data-original="#000000" style="" class=""/><path d="m388.768 81.26c8.141 0 15.94-7.085 15.564-15.403-.378-8.345-6.839-15.403-15.564-15.403-8.141 0-15.94 7.085-15.564 15.403.378 8.346 6.839 15.403 15.564 15.403z" fill="#579dff" data-original="#000000" style="" class=""/><g><path d="m316 321.653c7.846 0 15.363-6.899 15-15-.364-8.127-6.591-15-15-15-7.846 0-15.363 6.899-15 15 .364 8.127 6.591 15 15 15z" fill="#579dff" data-original="#000000" style="" class=""/></g><g><path d="m255.962 321.653c7.846 0 15.363-6.899 15-15-.364-8.127-6.591-15-15-15-7.846 0-15.363 6.899-15 15 .364 8.127 6.591 15 15 15z" fill="#579dff" data-original="#000000" style="" class=""/></g><g><path d="m196 321.653c7.846 0 15.363-6.899 15-15-.364-8.127-6.591-15-15-15-7.846 0-15.363 6.899-15 15 .364 8.127 6.591 15 15 15z" fill="#579dff" data-original="#000000" style="" class=""/></g></g></g></svg>
